<?xml version="1.0" encoding="UTF-8" standalone="no"?>
<svg
   xmlns:dc="http://purl.org/dc/elements/1.1/"
   xmlns:cc="http://creativecommons.org/ns#"
   xmlns:rdf="http://www.w3.org/1999/02/22-rdf-syntax-ns#"
   xmlns:svg="http://www.w3.org/2000/svg"
   xmlns="http://www.w3.org/2000/svg"
   xmlns:sodipodi="http://sodipodi.sourceforge.net/DTD/sodipodi-0.dtd"
   xmlns:inkscape="http://www.inkscape.org/namespaces/inkscape"
   sodipodi:docname="seatsurfing_white.svg"
   inkscape:version="1.0 (4035a4f, 2020-05-01)"
   id="svg30"
   version="1.1"
   viewBox="0 0 24.349359 5.2916698"
   height="5.2916698mm"
   width="24.34936mm">
  <defs
     id="defs24" />
  <sodipodi:namedview
     inkscape:window-maximized="0"
     inkscape:window-y="23"
     inkscape:window-x="0"
     inkscape:window-height="1395"
     inkscape:window-width="2560"
     fit-margin-bottom="0"
     fit-margin-right="0"
     fit-margin-left="0"
     fit-margin-top="0"
     showgrid="false"
     inkscape:document-rotation="0"
     inkscape:current-layer="layer1"
     inkscape:document-units="mm"
     inkscape:cy="23.074656"
     inkscape:cx="96.925101"
     inkscape:zoom="5.4664474"
     inkscape:pageshadow="2"
     inkscape:pageopacity="0.0"
     borderopacity="1.0"
     bordercolor="#666666"
     pagecolor="#ffffff"
     id="base" />
  <metadata
     id="metadata27">
    <rdf:RDF>
      <cc:Work
         rdf:about="">
        <dc:format>image/svg+xml</dc:format>
        <dc:type
           rdf:resource="http://purl.org/dc/dcmitype/StillImage" />
        <dc:title></dc:title>
      </cc:Work>
    </rdf:RDF>
  </metadata>
  <g
     transform="translate(-178.17992,-118.09128)"
     style="display:inline"
     id="layer1"
     inkscape:groupmode="layer"
     inkscape:label="Layer 1">
    <path
       style="fill:#ffffff;fill-opacity:1;stroke-width:0.264583"
       d="m 182.94242,121.0017 c 0,-1.21735 -1.19989,-2.91042 -2.38125,-2.91042 -1.18137,0 -2.38125,1.69307 -2.38125,2.91042 0,1.29593 1.07976,1.55072 2.11666,1.58274 v 0.26934 h -0.79375 v 0.52917 h 2.11667 v -0.52917 h -0.79375 v -0.26934 c 1.0369,-0.032 2.11667,-0.28681 2.11667,-1.58274 z m -4.23334,0 c 0,-0.94033 0.99325,-2.38125 1.85209,-2.38125 0.85883,0 1.85208,1.44092 1.85208,2.38125 0,0.53525 -0.14314,1.05833 -1.85208,1.05833 -1.70895,0 -1.85209,-0.52308 -1.85209,-1.05833 z"
       id="path11" />
    <path
       style="fill:#ffffff;fill-opacity:1;stroke-width:0.264583"
       d="m 181.35492,121.53087 h 0.52916 c 0,-0.46779 -0.69718,-0.79375 -1.32291,-0.79375 -0.62574,0 -1.32292,0.32596 -1.32292,0.79375 l 0.52705,0.0156 c 0.0341,-0.0855 0.37042,-0.2802 0.79587,-0.2802 0.42545,0 0.76173,0.19474 0.79375,0.26459 z"
       id="path13" />
    <g
       style="display:inline;font-style:normal;font-variant:normal;font-weight:600;font-stretch:normal;font-size:3.52777999999999992px;line-height:1.25;font-family:'Lucida Grande';-inkscape-font-specification:'Lucida Grande Semi-Bold';letter-spacing:-0.13229199999999999px;fill:#ffffff;fill-opacity:1;stroke:none;stroke-width:0.264583"
       id="text893"
       aria-label="seatsurfing">
      <path
         d="m 200.84118,122.34512 0.0413,-0.37035 q 0.31523,0.14469 0.60117,0.14469 0.2825,0 0.40825,-0.12057 0.12574,-0.12058 0.12574,-0.39102 v -0.25839 q -0.18603,0.40825 -0.61495,0.40825 -0.33762,0 -0.53571,-0.25149 -0.19809,-0.25322 -0.19809,-0.68386 0,-0.45303 0.22221,-0.72519 0.2222,-0.27388 0.59083,-0.27388 0.28939,0 0.53571,0.23426 l 0.0534,-0.1912 h 0.4582 v 1.4435 q 0,0.43236 -0.0534,0.62356 -0.0517,0.1912 -0.20326,0.32556 -0.25494,0.22049 -0.7183,0.22049 -0.32901,0 -0.71314,-0.13436 z m 1.1765,-1.29191 v -0.69764 q -0.18431,-0.20842 -0.38585,-0.20842 -0.19292,0 -0.30661,0.1757 -0.11369,0.1757 -0.11369,0.47197 0,0.55466 0.35657,0.55466 0.24632,0 0.44958,-0.29627 z m -3.37309,0.70452 v -1.89136 h 0.50987 v 0.35657 q 0.24977,-0.39963 0.64424,-0.39963 0.25321,0 0.39963,0.16019 0.14641,0.1602 0.14641,0.43753 v 1.3367 h -0.50987 v -1.21095 q 0,-0.32212 -0.2136,-0.32212 -0.24288,0 -0.46681,0.34279 v 1.19028 z m -2.07292,0 v -1.57269 h -0.2601 v -0.31867 h 0.2601 v -0.13091 q 0,-0.35657 0.16881,-0.54777 0.17053,-0.19293 0.48404,-0.19293 0.19292,0 0.40997,0.0706 v 0.34796 q -0.2136,-0.0947 -0.31695,-0.0947 -0.23599,0 -0.23599,0.43064 v 0.11713 h 1.19028 v 1.89136 h -0.50988 v -1.57269 h -0.6804 v 1.57269 z m 1.27469,-2.21003 v -0.42547 h 0.42547 v 0.42547 z m -0.28594,0.31867 z m -2.51527,1.89136 v -1.89136 h 0.50987 v 0.35657 q 0.1981,-0.39963 0.6029,-0.39963 0.0482,0 0.0947,0.0103 v 0.45475 q -0.10852,-0.0396 -0.20154,-0.0396 -0.30489,0 -0.4961,0.30833 v 1.20062 z m -1.0132,0 v -0.35657 q -0.24805,0.39963 -0.64424,0.39963 -0.25321,0 -0.39963,-0.16019 -0.14641,-0.1602 -0.14641,-0.43753 v -1.3367 h 0.50987 v 1.21095 q 0,0.32212 0.21532,0.32212 0.24116,0 0.46509,-0.34279 v -1.19028 h 0.50987 v 1.89136 z m -3.08543,-0.0603 v -0.37379 q 0.37896,0.15847 0.64768,0.15847 0.3135,0 0.3135,-0.2136 0,-0.1378 -0.25838,-0.24115 l -0.17226,-0.0689 q -0.28077,-0.11369 -0.40135,-0.24461 -0.12058,-0.13091 -0.12058,-0.32384 0,-0.26871 0.20498,-0.41685 0.20499,-0.14986 0.57361,-0.14986 0.23082,0 0.5495,0.0672 v 0.35829 q -0.30662,-0.1068 -0.50816,-0.1068 -0.31695,0 -0.31695,0.19637 0,0.12919 0.23427,0.21876 l 0.14814,0.0569 q 0.33245,0.12574 0.46164,0.25493 0.13092,0.12919 0.13092,0.33246 0,0.26699 -0.22221,0.43408 -0.22049,0.16536 -0.57533,0.16536 -0.34107,0 -0.68902,-0.10335 z m -0.27595,0.0499 q -0.18259,0.0534 -0.28767,0.0534 -0.66318,0 -0.66318,-0.62012 v -0.99563 h -0.21187 v -0.31867 h 0.21187 v -0.31867 l 0.50987,-0.0586 v 0.37724 h 0.4048 v 0.31867 h -0.4048 v 0.92846 q 0,0.34795 0.28422,0.34795 0.0655,0 0.15676,-0.0241 z m -1.98989,-0.19292 q -0.25494,0.24632 -0.54605,0.24632 -0.24805,0 -0.40308,-0.15158 -0.15503,-0.15159 -0.15503,-0.39274 0,-0.31351 0.24977,-0.48232 0.2515,-0.17053 0.71831,-0.17053 h 0.13608 v -0.17225 q 0,-0.29456 -0.3359,-0.29456 -0.298,0 -0.60289,0.16881 v -0.3514 q 0.34623,-0.13091 0.68557,-0.13091 0.74242,0 0.74242,0.59083 v 0.83716 q 0,0.22221 0.14297,0.22221 0.0258,0 0.0672,-0.007 l 0.0121,0.28594 q -0.16192,0.0482 -0.28594,0.0482 -0.31351,0 -0.40308,-0.24632 z m 0,-0.27389 v -0.38413 h -0.12058 q -0.49437,0 -0.49437,0.31006 0,0.10508 0.0706,0.17743 0.0724,0.0706 0.17742,0.0706 0.17915,0 0.36691,-0.17398 z m -1.32154,0.41341 q -0.36346,0.1068 -0.68902,0.1068 -0.4737,0 -0.74759,-0.26872 -0.27388,-0.26871 -0.27388,-0.7338 0,-0.43925 0.24977,-0.70625 0.25149,-0.26871 0.66318,-0.26871 0.41513,0 0.60634,0.26182 0.1912,0.26183 0.1912,0.82855 h -1.17306 q 0.0517,0.54088 0.59428,0.54088 0.25666,0 0.57878,-0.11886 z m -1.17995,-1.06798 h 0.67869 q 0,-0.48403 -0.31178,-0.48403 -0.31695,0 -0.36691,0.48403 z m -2.27583,1.07143 v -0.37379 q 0.37896,0.15847 0.64768,0.15847 0.3135,0 0.3135,-0.2136 0,-0.1378 -0.25838,-0.24115 l -0.17225,-0.0689 q -0.28078,-0.11369 -0.40136,-0.24461 -0.12058,-0.13091 -0.12058,-0.32384 0,-0.26871 0.20499,-0.41685 0.20498,-0.14986 0.57361,-0.14986 0.23082,0 0.54949,0.0672 v 0.35829 q -0.30661,-0.1068 -0.50815,-0.1068 -0.31695,0 -0.31695,0.19637 0,0.12919 0.23426,0.21876 l 0.14814,0.0569 q 0.33246,0.12574 0.46165,0.25493 0.13091,0.12919 0.13091,0.33246 0,0.26699 -0.22221,0.43408 -0.22048,0.16536 -0.57533,0.16536 -0.34106,0 -0.68902,-0.10335 z"
         style="font-style:normal;font-variant:normal;font-weight:600;font-stretch:normal;font-size:3.52777999999999992px;font-family:'Lucida Grande';-inkscape-font-specification:'Lucida Grande Semi-Bold';fill:#ffffff;fill-opacity:1;stroke-width:0.264583"
         id="path913" />
    </g>
  </g>
</svg>
